# xmcd
#
# Track frame offsets: 
#        150
#        15068
#        28728
#        45004
#        57121
#        70963
#        87444
#        107953
#        119387
#        130838
#        149224
#        168740
#
# Disc length: 2586 seconds
#
# Revision: 4
# Processed by: cddbd v1.5.2PL0 Copyright (c) Steve Scherf et al.
# Submitted via: ExactAudioCopyFreeDBPlugin 1.0
#
DISCID=a30a180c
DTITLE=Doug Supernaw - Fadin' Renegade
DYEAR=1999
DGENRE=Country
TTITLE0=Fadin' Renegade
TTITLE1=Wilting Rose
TTITLE2=One Of Those Days
TTITLE3=Took Her To The Moon
TTITLE4=Drove Me To Drinkin'
TTITLE5=Gave Away The Bride
TTITLE6=Twenty-One To Seventeen
TTITLE7=So In Love With You
TTITLE8=Nothing Sure Looked Good On You
TTITLE9=Jaded Lover
TTITLE10=Me And The Drummer
TTITLE11=Whatever Happened To Eddy
EXTD=
EXTT0=
EXTT1=
EXTT2=
EXTT3=
EXTT4=
EXTT5=
EXTT6=
EXTT7=
EXTT8=
EXTT9=
EXTT10=
EXTT11=
PLAYORDER=
